<?xml version="1.0" standalone="no"?><!DOCTYPE svg PUBLIC "-//W3C//DTD SVG 1.1//EN" "http://www.w3.org/Graphics/SVG/1.1/DTD/svg11.dtd"><svg t="1529565152479" class="icon" style="" viewBox="0 0 1024 1024" version="1.1" xmlns="http://www.w3.org/2000/svg" p-id="3820" xmlns:xlink="http://www.w3.org/1999/xlink" width="24" height="24"><defs><style type="text/css"></style></defs><path d="M954.747241 264.770246c-4.0175-6.665817-10.752902-12.009522-20.13048-16.45681-9.437953-4.422729-22.395056-6.65763-39.461757-6.65763L273.727757 241.655805l-5.421476-33.781384-3.595898-26.240641c-1.311879-8.439206-2.187829-15.105023-3.578502-19.989263l-4.470825-15.128559c-1.796926-5.774517-4.891404-11.550057-8.924253-16.885576-4.499477-5.345752-10.329253-9.775644-17.502629-13.331633-7.173376-3.554966-17.019629-5.336542-29.132504-5.336542l-91.849918 0c-13.862729 0-24.645306 3.992941-33.132608 11.550057-8.081049 7.571443-12.111852 17.339924-12.111852 29.343305 0 5.774517 0.921999 12.463869 2.234901 19.559475 1.344624 7.118118 4.455475 13.783934 8.048303 20.011776 4.0175 6.227842 9.017374 11.550057 15.222703 15.996322 5.875824 4.454452 13.488199 6.665817 22.396079 6.665817l68.139913 0 39.415708 200.047152 14.363126 76.010161 12.987802 68.449975 10.284227 51.135634 4.953825 25.762757c1.780553 8.901741 4.499477 18.23941 7.610328 28.459169 3.578502 10.222829 7.611352 19.562545 13.424754 28.000728 5.377474 8.448416 12.128225 15.565511 20.176528 20.904099 8.096399 5.338588 18.379603 8.010441 30.491455 8.010441l475.815893 0c17.066701 0 28.694529-4.456498 34.038234-12.895705 5.862521-8.446369 9.017374-18.683525 9.017374-30.671557 0-24.467251-14.800078-36.46961-43.946908-36.46961L351.214549 640.832204l-13.860682-80.010265 477.157447 0c17.457604 0 32.257681-4.449335 44.36851-13.772678 12.082176-9.321296 21.913079-25.770943 30.007431-49.323359 3.594875-11.119245 8.985652-26.678616 15.676028-46.238091l21.520129-59.130725 19.253506-54.677297 11.69025-32.898271c1.750877-5.321192 2.673899-11.549034 3.095501-19.105127C960.577017 278.094716 958.779068 271.436062 954.747241 264.770246zM368.078635 751.089353c-44.197618 0-80.019475 35.821857-80.019475 80.017428 0 44.192501 35.821857 80.027661 80.019475 80.027661 44.196595 0 80.019475-35.836183 80.019475-80.027661C448.098109 786.91121 412.276253 751.089353 368.078635 751.089353zM752.169453 751.089353c-44.198641 0-80.019475 35.821857-80.019475 80.017428 0 44.192501 35.820833 80.027661 80.019475 80.027661 44.196595 0 80.017428-35.836183 80.017428-80.027661C832.186881 786.91121 796.366048 751.089353 752.169453 751.089353z" p-id="3821" fill="#bfbfbf"></path></svg>